HIERARCHY
ROOT root
{
	OFFSET 0.000000 0.000000 0.000000
	CHANNELS 6 Xposition Yposition Zposition Zrotation Yrotation Xrotation
	JOINT lhip
	{
		OFFSET 0.058581 -0.082280 -0.017664
		CHANNELS 3 Zrotation Yrotation Xrotation
		JOINT lknee
		{
			OFFSET 0.043451 -0.386469 0.008037
			CHANNELS 3 Zrotation Yrotation Xrotation
			JOINT lankle
			{
				OFFSET -0.014790 -0.426874 -0.037428
				CHANNELS 3 Zrotation Yrotation Xrotation
				JOINT ltoe
				{
					OFFSET 0.041054 -0.060286 0.122042
					CHANNELS 3 Zrotation Yrotation Xrotation
					End Site
					{
						OFFSET 0.000000 0.000000 0.000000
					}
				}
			}
		}
	}
	JOINT rhip
	{
		OFFSET -0.060310 -0.090513 -0.013543
		CHANNELS 3 Zrotation Yrotation Xrotation
		JOINT rknee
		{
			OFFSET -0.043257 -0.383688 -0.004843
			CHANNELS 3 Zrotation Yrotation Xrotation
			JOINT rankle
			{
				OFFSET 0.019056 -0.420046 -0.034562
				CHANNELS 3 Zrotation Yrotation Xrotation
				JOINT rtoe
				{
					OFFSET -0.034840 -0.062106 0.130323
					CHANNELS 3 Zrotation Yrotation Xrotation
					End Site
					{
						OFFSET 0.000000 0.000000 0.000000
					}
				}
			}
		}
	}
	JOINT lowerback
	{
		OFFSET 0.004439 0.124404 -0.038385
		CHANNELS 3 Zrotation Yrotation Xrotation
		JOINT upperback
		{
			OFFSET 0.004488 0.137956 0.026820
			CHANNELS 3 Zrotation Yrotation Xrotation
			JOINT chest
			{
				OFFSET -0.002265 0.056032 0.002855
				CHANNELS 3 Zrotation Yrotation Xrotation
				JOINT lowerneck
				{
					OFFSET -0.013390 0.211636 -0.033468
					CHANNELS 3 Zrotation Yrotation Xrotation
					JOINT upperneck
					{
						OFFSET 0.010113 0.088937 0.050410
						CHANNELS 3 Zrotation Yrotation Xrotation
						End Site
						{
							OFFSET 0.000000 0.000000 0.000000
						}
					}
				}
				JOINT lclavicle
				{
					OFFSET 0.071702 0.114000 -0.018898
					CHANNELS 3 Zrotation Yrotation Xrotation
					JOINT lshoulder
					{
						OFFSET 0.122921 0.045205 -0.019046
						CHANNELS 3 Zrotation Yrotation Xrotation
						JOINT lelbow
						{
							OFFSET 0.255332 -0.015649 -0.022946
							CHANNELS 3 Zrotation Yrotation Xrotation
							JOINT lwrist
							{
								OFFSET 0.265709 0.012698 -0.007375
								CHANNELS 3 Zrotation Yrotation Xrotation
								End Site
								{
									OFFSET 0.000000 0.000000 0.000000
								}
							}
						}
					}
				}
				JOINT rclavicle
				{
					OFFSET -0.082954 0.112472 -0.023707
					CHANNELS 3 Zrotation Yrotation Xrotation
					JOINT rshoulder
					{
						OFFSET -0.113228 0.046853 -0.008472
						CHANNELS 3 Zrotation Yrotation Xrotation
						JOINT relbow
						{
							OFFSET -0.260127 -0.014369 -0.031269
							CHANNELS 3 Zrotation Yrotation Xrotation
							JOINT rwrist
							{
								OFFSET -0.269108 0.006794 -0.006027
								CHANNELS 3 Zrotation Yrotation Xrotation
								End Site
								{
									OFFSET 0.000000 0.000000 0.000000
								}
							}
						}
					}
				}
			}
		}
	}
}
MOTION
Frames: 14
Frame Time: 0.033333
0.398602 0.344925 0.931180 93.015545 1.657785 83.640974 11.255130 2.883025 -1.000008 -11.219976 -10.288537 35.994731 2.614711 10.677015 -36.379175 0.000000 -0.000000 0.000000 -17.345048 -5.687405 -26.044638 1.201608 -6.388780 33.157995 10.694432 -15.373795 3.777493 0.000000 -0.000000 0.000000 -1.061178 -4.645379 22.627451 6.984611 -4.339761 -4.492785 3.202306 -6.237853 0.119499 4.289630 5.891472 -5.898110 -2.336500 3.320863 15.517058 -25.307951 4.976078 6.263673 -32.816263 -7.545036 2.940413 1.902491 -51.511120 5.603161 -11.734699 -18.013199 -16.791359 32.853306 -6.698166 -2.502546 32.193773 -0.336554 11.458352 -26.218597 50.011721 -16.670912 31.211249 11.135609 -3.026185 
0.379045 0.353166 0.937431 91.900563 2.387272 83.690824 11.009113 2.702813 -1.956524 -10.701214 -9.697995 35.456721 2.485632 11.231559 -35.205415 0.000000 -0.000000 0.000000 -17.169916 -5.189785 -25.377214 2.198416 -5.206633 30.438999 13.196470 -12.851172 2.937352 0.000000 -0.000000 0.000000 -0.862485 -3.879332 22.844506 6.685557 -3.580217 -4.587568 3.117622 -5.473505 0.194304 4.118404 6.183678 -5.696122 -2.452642 2.973052 15.529236 -25.434342 5.802654 5.639099 -32.589432 -6.664634 2.997448 2.325159 -51.142642 4.590266 -11.747500 -17.946511 -15.925374 33.004060 -6.684704 -2.343045 31.717164 0.278366 11.245228 -25.448089 49.835297 -15.572400 31.424139 11.776897 -1.232056 
0.361108 0.358449 0.945889 91.116559 3.069782 83.834185 11.226319 2.535424 -2.992220 -10.481401 -9.131607 34.722983 2.163023 11.490774 -33.404972 0.000000 -0.000000 0.000000 -16.997384 -4.139898 -24.326693 3.660785 -2.376805 29.173390 13.894975 -9.357268 -0.900165 0.000000 -0.000000 0.000000 -0.576760 -3.236734 22.717570 6.316830 -2.910905 -4.561561 2.742836 -4.736903 0.071005 4.135995 7.028461 -5.660223 -2.615426 2.435595 15.892500 -25.467662 6.428688 5.101003 -31.793354 -5.449455 3.120559 2.756241 -50.779346 3.526637 -11.588651 -18.097308 -15.138248 33.148719 -6.447801 -2.036230 30.845217 0.753676 10.881051 -25.079832 49.974715 -15.225561 30.537713 12.167733 -1.148733 
0.344679 0.361968 0.955228 91.250125 3.503901 83.717824 11.377990 1.951398 -3.491260 -10.285338 -8.561391 33.462800 1.280086 11.464577 -31.206679 0.000000 -0.000000 0.000000 -17.260909 -3.896712 -22.667578 4.168629 -1.752966 30.287887 13.498080 -8.522874 -2.807023 0.000000 -0.000000 0.000000 -0.296556 -2.649616 22.132570 5.865556 -2.568390 -3.902218 2.207552 -4.115984 0.150928 3.945836 7.342149 -5.606951 -2.806537 1.749915 16.020603 -25.337705 6.664704 4.509249 -31.032926 -4.700627 3.072699 3.401495 -50.478070 2.142050 -11.781719 -18.120219 -14.516507 32.796090 -5.746937 -1.885821 30.254821 1.179000 10.645136 -25.657234 50.006853 -16.236487 29.928939 11.992208 -0.989377 
0.328668 0.363954 0.964370 91.576684 3.653831 83.708521 11.287437 1.618845 -3.849988 -10.030686 -8.613567 31.668955 1.095266 11.256408 -28.955984 0.000000 -0.000000 0.000000 -17.678228 -4.247665 -21.415763 3.632243 -3.065190 33.038007 13.004382 -10.352059 -4.050731 0.000000 -0.000000 0.000000 -0.095999 -2.193047 21.826020 5.136000 -1.863521 -3.873785 1.713901 -3.578910 0.075026 3.477199 7.026935 -5.252098 -2.786025 1.841167 15.990756 -25.031889 7.040089 4.090709 -30.407292 -4.285435 2.819647 3.566297 -50.217858 1.512592 -11.794376 -17.744151 -15.312779 32.229112 -5.362582 -1.893174 29.517583 1.523420 10.430067 -25.968502 50.282033 -16.718743 29.188113 11.882530 -0.408513 
0.313391 0.364143 0.972119 91.941264 3.760145 83.604439 11.391656 1.532991 -3.867349 -9.967977 -9.006918 29.608963 1.012970 10.990176 -26.891204 0.000000 -0.000000 0.000000 -17.954202 -4.850923 -20.116648 3.361232 -3.433183 37.264335 11.750317 -11.234905 -4.832313 0.000000 -0.000000 0.000000 0.061090 -1.582254 21.223052 4.498436 -1.193972 -3.491981 1.251665 -3.010758 0.074011 2.873369 6.767862 -4.841311 -2.933416 2.040091 15.942368 -25.016718 6.906204 4.090038 -29.628800 -3.504514 2.691480 3.914568 -50.441303 1.259344 -10.998346 -17.595364 -14.886181 31.462345 -4.662028 -1.530976 28.493257 1.994968 9.686084 -25.735440 50.654121 -16.804878 28.765744 11.972215 -0.722630 
0.297294 0.362439 0.977957 92.295300 3.779163 83.693527 11.486779 1.489995 -4.349661 -9.808979 -9.252794 27.901801 1.028907 10.787334 -25.207532 0.000000 -0.000000 0.000000 -18.221936 -5.476690 -18.827443 3.607157 -3.274346 41.768570 11.804046 -10.914660 -5.458897 0.000000 -0.000000 0.000000 0.247121 -0.857983 20.708974 3.868778 -0.483516 -3.412013 0.630750 -2.173471 0.071511 2.306731 6.648513 -4.943570 -3.006688 1.872854 16.469677 -24.971186 7.085436 3.475779 -28.744520 -3.360828 2.508103 2.944062 -50.477049 1.158722 -8.018462 -18.384027 -14.602461 30.831899 -4.123234 -1.290641 27.311741 2.416032 9.136100 -25.545448 50.916311 -17.255588 27.856770 12.605494 -0.766180 
0.280846 0.359222 0.981559 92.422013 3.705211 83.803344 11.567714 1.419649 -4.633926 -9.609556 -9.456188 25.895036 1.342078 10.908040 -23.670155 0.000000 -0.000000 0.000000 -18.401623 -5.611307 -17.281152 4.361670 -2.787199 45.690103 11.947824 -10.064847 -5.593673 0.000000 -0.000000 0.000000 0.336870 -0.160997 20.127399 3.122536 0.373006 -3.014953 0.134576 -1.457695 -0.309341 1.883030 6.786549 -4.363086 -3.210515 2.150366 16.448153 -24.871658 6.999460 3.074785 -28.429560 -1.885624 2.943128 3.767750 -50.459204 1.495670 -12.446782 -16.116132 -15.337736 30.146084 -3.378064 -0.774024 26.416602 3.183452 8.244474 -25.317690 50.958682 -17.384663 29.017361 11.496562 -0.806910 
0.264183 0.354471 0.983337 92.652397 3.391900 84.059339 11.386106 0.819928 -5.414943 -9.353125 -9.691826 24.476296 1.780407 10.867788 -22.470813 0.000000 -0.000000 0.000000 -18.640992 -5.946683 -15.479238 4.724044 -2.704878 48.886634 12.127476 -9.477961 -4.498696 0.000000 -0.000000 0.000000 0.235775 0.747446 19.527924 2.426203 0.990676 -2.947571 -0.424705 -0.586719 -0.421175 1.549736 6.718241 -3.731726 -3.061938 2.438409 16.874633 -25.085141 7.056845 2.476507 -27.802602 -1.561177 3.041760 3.492618 -50.385717 0.562158 -9.699921 -16.951409 -14.859480 29.791416 -2.578826 -0.484291 25.492025 3.669349 7.951110 -24.991012 50.764417 -17.728666 27.756910 11.759866 -0.400525 
0.247691 0.347818 0.983672 92.862636 2.941310 84.219430 11.291240 0.023851 -6.475761 -9.298000 -9.583823 23.806937 1.791267 10.940221 -20.982320 0.000000 -0.000000 0.000000 -18.658694 -6.120010 -13.145265 5.017695 -2.445614 51.052375 12.604616 -8.937568 -3.367255 0.000000 -0.000000 0.000000 -0.054843 1.694577 19.043364 1.819965 1.457903 -2.736823 -0.884996 0.210213 -0.555842 1.204761 6.375106 -3.384585 -3.271596 2.056407 17.100468 -25.493025 7.361668 1.996858 -27.334291 -1.053142 3.191453 3.555201 -50.699731 -0.267288 -8.904039 -17.581072 -14.288249 29.429967 -1.654432 -0.057928 25.024383 4.210201 7.821694 -25.025207 50.533216 -18.027633 26.836556 12.394685 0.276481 
0.230776 0.339374 0.982913 92.778000 2.185433 84.440231 11.173708 -0.754197 -7.422823 -9.265095 -8.924646 22.813198 1.801350 10.881369 -19.606580 0.000000 -0.000000 0.000000 -18.491187 -5.647974 -10.900133 5.343010 -1.848067 52.199761 12.572765 -8.003956 -3.123344 0.000000 -0.000000 0.000000 -0.506841 2.897282 18.099291 1.067587 2.135819 -1.924826 -1.380849 0.896837 -0.823335 0.973537 6.505493 -2.510079 -3.224416 2.200261 16.857789 -25.701054 7.180460 1.908935 -27.439911 -0.166399 3.661793 5.236874 -49.769873 -1.407133 -10.309281 -17.909301 -15.175924 29.275074 -0.894776 0.503915 25.169685 5.066466 7.474491 -25.213662 49.832154 -17.779270 27.452432 12.754089 0.247314 
0.213422 0.329369 0.981152 92.954494 1.502320 84.706319 11.055831 -1.240031 -8.791557 -9.015594 -8.594030 22.380087 1.680240 10.746140 -18.374103 0.000000 -0.000000 0.000000 -17.913508 -5.748529 -8.381976 5.640655 -0.614074 51.991414 12.416401 -7.123805 -2.967991 0.000000 -0.000000 0.000000 -0.815273 3.830956 17.513255 0.372476 2.436503 -1.796348 -1.894209 1.615868 -0.997012 0.706519 6.784318 -2.041519 -3.357212 2.611586 17.240041 -25.881158 7.567747 1.424105 -27.465622 0.496464 3.846969 4.638407 -50.239684 -0.719629 -10.127078 -16.601398 -14.791936 29.039085 -0.317009 1.180827 25.774138 6.172480 7.340709 -25.022314 49.502679 -17.553655 27.576057 12.248668 0.391987 
0.195837 0.317964 0.978197 93.440447 0.806059 84.977036 11.009591 -1.894825 -10.551618 -8.729398 -8.087598 22.424504 1.318154 10.305250 -17.304442 0.000000 -0.000000 0.000000 -17.258171 -5.741634 -5.435561 6.053301 0.305084 50.093572 12.806048 -5.881999 -3.123568 0.000000 -0.000000 0.000000 -1.027024 4.802617 16.925350 -0.165065 2.533089 -1.473286 -2.298109 2.118415 -1.072598 0.411484 6.791564 -1.817267 -3.417345 2.298947 17.620369 -26.313761 7.771045 1.040157 -27.862334 0.878394 4.346582 4.813670 -50.406925 -0.325686 -9.740520 -16.002912 -14.151095 29.140449 0.176993 1.509579 25.902454 6.895537 7.376126 -24.234255 49.896957 -16.597835 27.035077 12.653696 0.050959 
0.177403 0.304703 0.973270 93.828748 0.160774 85.028733 11.161899 -2.469863 -12.330439 -8.663529 -7.677003 23.080479 0.409569 9.971117 -16.361449 0.000000 -0.000000 0.000000 -16.425823 -5.706571 -2.273349 6.417895 1.083773 46.917318 13.870432 -4.657248 -6.017976 0.000000 -0.000000 0.000000 -1.314304 5.891605 16.462960 -0.546706 2.599343 -0.907117 -2.336896 2.585650 -1.115408 -0.031575 7.038921 -1.468009 -3.176747 2.179717 17.416297 -26.567514 7.546116 0.834486 -28.955537 1.434375 4.909390 5.298751 -50.553178 -0.753141 -9.349435 -15.288214 -14.015849 28.883963 0.854282 1.844625 26.103931 7.132642 7.380696 -23.504244 51.048733 -15.310331 26.955118 12.819158 -0.038658 
